<svg width="100" height="25" fill="none" xmlns="http://www.w3.org/2000/svg"><path fill-rule="evenodd" clip-rule="evenodd" d="M58 3c-5.52 0-10 4.48-10 10s4.48 10 10 10 10-4.48 10-10S63.52 3 58 3zm-4.93 16.28c.43-.9 3.05-1.78 4.93-1.78s4.51.88 4.93 1.78A7.893 7.893 0 0158 21c-1.86 0-3.57-.64-4.93-1.72zm11.29-1.45c-1.43-1.74-4.9-2.33-6.36-2.33s-4.93.59-6.36 2.33A7.95 7.95 0 0150 13c0-4.41 3.59-8 8-8s8 3.59 8 8c0 1.82-.62 3.49-1.64 4.83zM58 7c-1.94 0-3.5 1.56-3.5 3.5S56.06 14 58 14s3.5-1.56 3.5-3.5S59.94 7 58 7zm0 5c-.83 0-1.5-.67-1.5-1.5S57.17 9 58 9s1.5.67 1.5 1.5S58.83 12 58 12z" fill="#fff"/></svg>