<svg width="100" height="25" viewBox="0 0 100 25" fill="none" xmlns="http://www.w3.org/2000/svg">
<path fill-rule="evenodd" clip-rule="evenodd" d="M58 3C52.48 3 48 7.48 48 13C48 18.52 52.48 23 58 23C63.52 23 68 18.52 68 13C68 7.48 63.52 3 58 3ZM53.07 19.28C53.5 18.38 56.12 17.5 58 17.5C59.88 17.5 62.51 18.38 62.93 19.28C61.57 20.36 59.86 21 58 21C56.14 21 54.43 20.36 53.07 19.28ZM64.36 17.83C62.93 16.09 59.46 15.5 58 15.5C56.54 15.5 53.07 16.09 51.64 17.83C50.62 16.49 50 14.82 50 13C50 8.59 53.59 5 58 5C62.41 5 66 8.59 66 13C66 14.82 65.38 16.49 64.36 17.83V17.83ZM58 7C56.06 7 54.5 8.56 54.5 10.5C54.5 12.44 56.06 14 58 14C59.94 14 61.5 12.44 61.5 10.5C61.5 8.56 59.94 7 58 7ZM58 12C57.17 12 56.5 11.33 56.5 10.5C56.5 9.67 57.17 9 58 9C58.83 9 59.5 9.67 59.5 10.5C59.5 11.33 58.83 12 58 12Z" fill="white"/>
<mask id="mask0_1_50" style="mask-type:alpha" maskUnits="userSpaceOnUse" x="48" y="3" width="20" height="20">
<path fill-rule="evenodd" clip-rule="evenodd" d="M58 3C52.48 3 48 7.48 48 13C48 18.52 52.48 23 58 23C63.52 23 68 18.52 68 13C68 7.48 63.52 3 58 3ZM53.07 19.28C53.5 18.38 56.12 17.5 58 17.5C59.88 17.5 62.51 18.38 62.93 19.28C61.57 20.36 59.86 21 58 21C56.14 21 54.43 20.36 53.07 19.28ZM64.36 17.83C62.93 16.09 59.46 15.5 58 15.5C56.54 15.5 53.07 16.09 51.64 17.83C50.62 16.49 50 14.82 50 13C50 8.59 53.59 5 58 5C62.41 5 66 8.59 66 13C66 14.82 65.38 16.49 64.36 17.83V17.83ZM58 7C56.06 7 54.5 8.56 54.5 10.5C54.5 12.44 56.06 14 58 14C59.94 14 61.5 12.44 61.5 10.5C61.5 8.56 59.94 7 58 7ZM58 12C57.17 12 56.5 11.33 56.5 10.5C56.5 9.67 57.17 9 58 9C58.83 9 59.5 9.67 59.5 10.5C59.5 11.33 58.83 12 58 12Z" fill="white"/>
</mask>
<g mask="url(#mask0_1_50)">
</g>
</svg>
